<svg xmlns="http://www.w3.org/2000/svg" id="Layer_1" data-name="Layer 1" viewBox="0 0 500 500"><defs><style>.cls-1{fill:none;stroke:#ff7e00;stroke-miterlimit:10;stroke-width:18px}</style></defs><title>admin</title><g id="design_and_development_02" data-name="design and development 02"><g id="design_and_development_02-2" data-name="design and development 02"><path d="M414.67,79a6.34,6.34,0,1,1-6.34-6.33A6,6,0,0,1,414.67,79ZM383,72.67A6.33,6.33,0,1,0,389.33,79,6,6,0,0,0,383,72.67Zm-25.33,0A6.33,6.33,0,1,0,364,79,6,6,0,0,0,357.67,72.67Z" class="cls-1"/><path d="M98,148.67H224.67M98,186.67H224.67M98,224.67h76" class="cls-1"/><path d="M440,326H60V60H440ZM60,364H440M60,98H440M60,402H440M60,440H440M351.33,136A50.67,50.67,0,1,0,402,186.67,50.81,50.81,0,0,0,351.33,136Zm0,50.67,44.34-25.34m-44.34,25.34L307,161.33m44.33,25.34L326,231" class="cls-1"/></g></g></svg>