<svg id="Layer_1" data-name="Layer 1" xmlns="http://www.w3.org/2000/svg" viewBox="0 0 500 500"><defs><style>.cls-1{fill:#39687e;}</style></defs><title>banklogo</title><rect class="cls-1" x="50" y="421.44" width="400.01" height="28.57"/><path class="cls-1" d="M407.15,178.58a14.28,14.28,0,0,0,14.28-14.29V121.43A14.29,14.29,0,0,0,412,108L254.86,50.86a14.36,14.36,0,0,0-9.72,0L88,108a14.29,14.29,0,0,0-9.43,13.43v42.86a14.28,14.28,0,0,0,14.28,14.29h14.29V364.29H78.57v28.58H421.43V364.29H392.86V178.58Zm-300-47.15L250,79.43l142.86,52V150H107.14ZM278.57,364.29H221.43V178.58h57.14ZM135.71,178.58h57.15V364.29H135.71ZM364.29,364.29H307.14V178.58h57.15Z"/></svg>