<svg id="Layer_1" data-name="Layer 1" xmlns="http://www.w3.org/2000/svg" viewBox="0 0 500 500"><defs><style>.cls-1{font-size:60px;font-family:IBMPlexSans, IBM Plex Sans;}.cls-1,.cls-3{fill:#39687e;}.cls-2{letter-spacing:-0.01em;}</style></defs><title>bank</title><text class="cls-1" transform="translate(171.25 457.12)"><tspan class="cls-2">B</tspan><tspan x="38.58" y="0">ANK</tspan></text><rect class="cls-3" x="100" y="324.57" width="300" height="21.43"/><path class="cls-3" d="M367.86,142.43a10.71,10.71,0,0,0,10.71-10.72V99.57A10.71,10.71,0,0,0,371.5,89.5L253.64,46.64a10.71,10.71,0,0,0-7.28,0L128.5,89.5a10.71,10.71,0,0,0-7.07,10.07v32.14a10.71,10.71,0,0,0,10.71,10.72h10.72V281.71H121.43v21.43H378.57V281.71H357.14V142.43Zm-225-35.36L250,68.07l107.14,39V121H142.86ZM271.43,281.71H228.57V142.43h42.86ZM164.28,142.43h42.86V281.71H164.28ZM335.72,281.71H292.86V142.43h42.86Z"/></svg>