<svg id="Layer_1" data-name="Layer 1" xmlns="http://www.w3.org/2000/svg" viewBox="0 0 500 500"><defs><style>.cls-1,.cls-2{fill:#ff7e00;}.cls-2{font-size:60px;font-family:IBMPlexSans, IBM Plex Sans;}</style></defs><title>cafe</title><rect class="cls-1" x="105.17" y="325.31" width="289.66" height="20.69"/><path class="cls-1" d="M337.93,149.45H167.24a20.71,20.71,0,0,0-20.69,20.69V252.9a51.79,51.79,0,0,0,51.73,51.72H281a51.79,51.79,0,0,0,51.73-51.72V242.55h5.17a46.55,46.55,0,1,0,0-93.1ZM312.07,252.9a31.07,31.07,0,0,1-31,31H198.28a31.07,31.07,0,0,1-31-31V170.14H312.07Zm25.86-31h-5.17V170.14h5.17a25.86,25.86,0,1,1,0,51.72Z"/><path class="cls-1" d="M281,128.76H260.34v-1.51a20.54,20.54,0,0,0-11.43-18.5L221.15,94.86a41.13,41.13,0,0,1-22.87-37V46H219V57.86a20.58,20.58,0,0,0,11.43,18.5l27.76,13.88a41.13,41.13,0,0,1,22.87,37Z"/><text class="cls-2" transform="translate(177.88 457.12)">CAFE</text></svg>