<svg xmlns="http://www.w3.org/2000/svg" id="Layer_1" data-name="Layer 1" viewBox="0 0 500 500"><defs><style>.cls-1{fill:none;stroke:#555861;stroke-miterlimit:10;stroke-width:20px}</style></defs><title>cloud</title><path d="M450,248.67A77.39,77.39,0,0,1,372.67,326h-1.34" class="cls-1"/><path d="M136.67,326C87.33,319.33,50,276.67,50,226A99.86,99.86,0,0,1,150,126c13.33,0,26.67,2.67,37.33,8C203.33,99.33,238,76.67,278,76.67a99.71,99.71,0,0,1,100,94.66,77.34,77.34,0,0,1,72,77.34" class="cls-1"/><path d="M170,276.67l80-80,80,80M250,423.33V196.67" class="cls-1"/></svg>