<?xml version="1.0" encoding="utf-8"?>
<!-- Generator: Adobe Illustrator 24.0.0, SVG Export Plug-In . SVG Version: 6.00 Build 0)  -->
<svg version="1.1" id="Layer_1" focusable="false" xmlns="http://www.w3.org/2000/svg" xmlns:xlink="http://www.w3.org/1999/xlink"
	 x="0px" y="0px" viewBox="0 0 32 32" style="enable-background:new 0 0 32 32;" xml:space="preserve">
<style type="text/css">
	.st0{fill:#494A4B;}
</style>
<path class="st0" d="M12.3,27.9c-0.4-0.2-0.6-0.5-0.5-0.9l1.6-10.2H9.2c-0.5,0-0.9-0.4-0.9-0.8c0-0.1,0-0.1,0-0.2l2.6-11.1
	C11,4.3,11.4,4,11.8,4h8.6c0.3,0,0.5,0.1,0.7,0.3c0.2,0.2,0.2,0.5,0.2,0.7l-1.5,6.7h4.1c0.3,0,0.6,0.2,0.8,0.5
	c0.1,0.3,0.1,0.6-0.1,0.9L13.3,27.6c-0.2,0.2-0.4,0.4-0.7,0.4C12.5,28,12.4,28,12.3,27.9z M17.6,13.4l1.7-7.7h-6.8l-2.2,9.4h5.1
	L14,24l8.1-10.5H17.6z"/>
<title>Flash</title>
</svg>
