<svg id="Layer_1" data-name="Layer 1" xmlns="http://www.w3.org/2000/svg" viewBox="0 0 500 500"><defs><style>.cls-1,.cls-2{fill:#ff7e00;}.cls-2{font-size:60px;font-family:IBMPlexSans, IBM Plex Sans;}</style></defs><title>fuel</title><polygon class="cls-1" points="205.61 255.08 187.25 244.06 209.65 206.71 156.08 206.71 197.96 136.92 216.32 147.94 193.92 185.29 247.49 185.29 205.61 255.08"/><path class="cls-1" d="M400,99.57H389.29V67.43H367.86V99.57H357.14v64.29h10.72V287.07a16.08,16.08,0,0,1-32.15,0V196A10.7,10.7,0,0,0,325,185.29H282.14V78.14a10.71,10.71,0,0,0-10.71-10.71H132.14a10.72,10.72,0,0,0-10.71,10.71v225H100v21.43H303.57V303.14H282.14V206.71h32.15v80.36a37.5,37.5,0,0,0,75,0V163.86H400ZM260.71,303.14H142.86V88.86H260.71Z"/><text class="cls-2" transform="translate(180.37 457.12)">FUEL</text></svg>