<svg xmlns="http://www.w3.org/2000/svg" id="Layer_1" data-name="Layer 1" viewBox="0 0 500 500"><defs><style>.cls-1,.cls-2{fill:#39687e}.cls-2{font-size:60px;font-family:IBMPlexSans,IBM Plex Sans}.cls-3{letter-spacing:-.01em}</style></defs><title>groceries</title><circle cx="203.36" cy="320.03" r="20.67" class="cls-1"/><circle cx="348.06" cy="320.03" r="20.67" class="cls-1"/><path d="M389.41,103H160.16l-8.48-43.41a10.34,10.34,0,0,0-10.34-8.27H100V72h32.87l39.48,198.45a10.34,10.34,0,0,0,10.34,8.27H368.74V258H191.16l-8.47-41.35H368.74a10.33,10.33,0,0,0,10.33-8.06l20.67-93A10.33,10.33,0,0,0,389.41,103Zm-28.94,93H178.76l-14.47-72.35h212.2Z" class="cls-1"/><text class="cls-2" transform="translate(86.77 457.12)">G<tspan x="41.7" y="0" class="cls-3">R</tspan><tspan x="79.5" y="0">OCERIES</tspan></text></svg>