<svg xmlns="http://www.w3.org/2000/svg" id="Layer_1" data-name="Layer 1" viewBox="0 0 500 500"><defs><style>.cls-1,.cls-2{fill:none;stroke:#555861;stroke-width:20px;stroke-linejoin:round}.cls-2{fill:#ff002e;stroke:#ff002e;stroke-width:.25px}</style></defs><title>lightbulb</title><g id="innovate"><g id="innovate-2" data-name="innovate"><path id="patterns-ideas-creativity-04" d="M250,55.23c64.6,0,114,51.94,114,117.8,0,31.67-13.93,63.34-36.73,86.14-26.6,27.86-26.6,59.53-26.6,81.06v19H199.33v-19c0-21.53,0-53.2-26.6-81.06C149.93,235.1,136,204.7,136,173c0-65.86,49.4-117.8,114-117.8" class="cls-1"/></g></g><path id="gear" d="M276.76,169.14a26.86,26.86,0,1,1-26.86-26.86A26.59,26.59,0,0,1,276.76,169.14ZM314.37,181V155.17H297.18l-5.37-11.82,11.81-11.82-18.26-18.26-11.82,11.82-11.82-5.37V103.6H235.94v17.19l-11.82,5.37L212.3,114.34,194,132.61l11.82,11.82-5.38,11.81H184.37V182h17.19l5.37,11.82-11.82,11.82,18.27,18.26,11.81-11.82L237,217.48V233.6H262.8V216.41L274.62,211l11.81,11.82,18.27-18.27-11.82-11.82L298.25,181Z" class="cls-2"/><line x1="199.33" x2="300.67" y1="388.1" y2="388.1" class="cls-1"/><line x1="199.33" x2="300.67" y1="416.43" y2="416.43" class="cls-1"/><line x1="212" x2="288" y1="444.77" y2="444.77" class="cls-1"/></svg>