<svg xmlns="http://www.w3.org/2000/svg" id="Layer_1" data-name="Layer 1" viewBox="0 0 500 500"><defs><style>.cls-1,.cls-2{fill:none;stroke:#535455;stroke-width:9px}.cls-1{stroke-linejoin:round}.cls-2{stroke-miterlimit:10}</style></defs><title>newyork</title><g id="nyc_brooklyn" data-name="nyc brooklyn"><g id="nyc_brookklyn" data-name="nyc brookklyn"><line x1="375" x2="375" y1="187.5" y2="229.17" class="cls-1"/><line x1="333.33" x2="333.33" y1="187.5" y2="229.17" class="cls-1"/><polygon points="385.42 125 385.42 187.5 322.92 187.5 322.92 125 354.17 104.17 385.42 125" class="cls-1"/><polyline points="208.33 333.33 208.33 93.75 93.75 93.75" class="cls-2"/><line x1="166.67" x2="166.67" y1="250" y2="291.67" class="cls-1"/><line x1="166.67" x2="166.67" y1="187.5" y2="229.17" class="cls-1"/><line x1="166.67" x2="166.67" y1="125" y2="166.67" class="cls-1"/><line x1="187.5" x2="187.5" y1="250" y2="291.67" class="cls-1"/><line x1="187.5" x2="187.5" y1="187.5" y2="229.17" class="cls-1"/><line x1="187.5" x2="187.5" y1="125" y2="166.67" class="cls-1"/><line x1="145.83" x2="145.83" y1="250" y2="291.67" class="cls-1"/><line x1="145.83" x2="145.83" y1="187.5" y2="229.17" class="cls-1"/><line x1="145.83" x2="145.83" y1="125" y2="166.67" class="cls-1"/><line x1="125" x2="125" y1="250" y2="291.67" class="cls-1"/><line x1="125" x2="125" y1="187.5" y2="229.17" class="cls-1"/><line x1="125" x2="125" y1="125" y2="166.67" class="cls-1"/><line x1="104.17" x2="104.17" y1="250" y2="291.67" class="cls-1"/><line x1="104.17" x2="104.17" y1="187.5" y2="229.17" class="cls-1"/><line x1="104.17" x2="104.17" y1="125" y2="166.67" class="cls-1"/><polyline points="125 406.25 125 333.33 291.67 333.33" class="cls-2"/><polyline points="291.67 406.25 291.67 229.17 406.25 229.17" class="cls-2"/><line x1="208.33" x2="208.33" y1="375" y2="406.25" class="cls-2"/><line x1="375" x2="375" y1="302.08" y2="333.33" class="cls-1"/><line x1="333.33" x2="333.33" y1="302.08" y2="333.33" class="cls-1"/><line x1="375" x2="375" y1="354.17" y2="385.42" class="cls-1"/><line x1="333.33" x2="333.33" y1="354.17" y2="385.42" class="cls-1"/><line x1="333.33" x2="333.33" y1="250" y2="281.25" class="cls-1"/><line x1="375" x2="375" y1="250" y2="281.25" class="cls-1"/><polyline points="166.67 406.25 166.67 375 250 375 250 406.25" class="cls-2"/><polyline points="250 333.33 250 166.67 208.33 166.67" class="cls-2"/></g></g></svg>