<svg xmlns="http://www.w3.org/2000/svg" xmlns:xlink="http://www.w3.org/1999/xlink" id="Layer_1" x="0" y="0" version="1.1" viewBox="0 0 500 500" xml:space="preserve" style="enable-background:new 0 0 500 500"><style type="text/css">.st0{fill:#ff002e}.st1{fill:#494a4b}</style><path d="M146.9,96.2v51.4H95.4V96.2H146.9 M69.7,70.5v102.9h102.9V70.5H69.7z M275.4,134.8v51.4H224v-51.4H275.4 M198.3,109.1v102.9h102.9V109.1H198.3z M146.9,250.5v51.4H95.4v-51.4H146.9 M69.7,224.8v102.9h102.9V224.8H69.7z" class="st0"/><path d="M326.9,173.4v77.1h-77.1v77.1h-77.1v102.9h257.1V173.4H326.9z M275.4,276.2h51.4v51.4h-51.4V276.2z M249.7,404.8h-51.4v-51.4h51.4V404.8z M326.9,404.8h-51.4v-51.4h51.4V404.8z M404,404.8h-51.4v-51.4H404V404.8z M404,327.6h-51.4	v-51.4H404V327.6z M352.6,250.5v-51.4H404v51.4H352.6z" class="st1"/><title>Development</title></svg>