<svg id="Layer_1" data-name="Layer 1" xmlns="http://www.w3.org/2000/svg" viewBox="0 0 500 500"><defs><style>.cls-1{fill:none;stroke:#ccc;stroke-linejoin:round;stroke-width:20px;}</style></defs><title>reservation-deselected</title><path class="cls-1" d="M196.67,90h0Zm-80,0H63.33V450H436.67V90h-320Zm0,160H223.33V196.67H116.67Zm240-133.33V63.33a13.34,13.34,0,0,0-26.67,0v53.34a13.34,13.34,0,0,0,26.67,0Zm-186.67,0V63.33a13.34,13.34,0,0,0-26.67,0v53.34a13.34,13.34,0,0,0,26.67,0ZM116.67,370H223.33V316.67H116.67Zm160-120H383.33V196.67H276.67Zm0,120H383.33V316.67H276.67Z"/></svg>