<svg id="Layer_1" data-name="Layer 1" xmlns="http://www.w3.org/2000/svg" viewBox="0 0 500 500"><defs><style>.cls-1,.cls-2{fill:#ff002e;}.cls-2{font-size:60px;font-family:IBMPlexSans, IBM Plex Sans;}.cls-3{letter-spacing:-0.01em;}.cls-4{letter-spacing:-0.06em;}</style></defs><title>restaurant</title><path class="cls-1" d="M200.87,185.29,115.15,99.57,100,114.72l70.56,70.57H100V196a150,150,0,0,0,300,0V185.29ZM250,324.57A128.75,128.75,0,0,1,121.87,206.71H378.13A128.75,128.75,0,0,1,250,324.57Z"/><path class="cls-1" d="M314.29,110.29A53.44,53.44,0,0,0,297.46,113,85.59,85.59,0,0,0,176,96.14L125.87,46,110.71,61.15,175.54,126l7.57-7.58a63.84,63.84,0,0,1,45.46-18.83,64.5,64.5,0,0,1,50.22,24.26,54.26,54.26,0,0,0-6.32,6.54,32,32,0,0,1-25.1,12.06H207.14v21.43h40.23a53.35,53.35,0,0,0,41.82-20.09,32.14,32.14,0,0,1,57.24,20.09h21.43A53.63,53.63,0,0,0,314.29,110.29Z"/><text class="cls-2" transform="translate(65.08 457.12)">RE<tspan class="cls-3" x="73.38" y="0">S</tspan><tspan class="cls-4" x="107.46" y="0">T</tspan><tspan class="cls-3" x="137.88" y="0">A</tspan><tspan x="175.56" y="0">URANT</tspan></text></svg>