<svg id="Layer_1" data-name="Layer 1" xmlns="http://www.w3.org/2000/svg" viewBox="0 0 500 500"><defs><style>.cls-1,.cls-2{fill:#ff002e;}.cls-2{font-size:60px;font-family:IBMPlexSans, IBM Plex Sans;}</style></defs><title>rideshare</title><path class="cls-1" d="M392.93,174.19,310.11,144.4l-34.72-43.5a32.17,32.17,0,0,0-24.85-11.79H164.82a32.14,32.14,0,0,0-26.46,14.15l-29,42.85A53.64,53.64,0,0,0,100,176v84.53a10.72,10.72,0,0,0,10.71,10.72h22.93a42.86,42.86,0,0,0,82.72,0h67.28a42.86,42.86,0,0,0,82.72,0h22.93A10.72,10.72,0,0,0,400,260.54V184.26A10.71,10.71,0,0,0,392.93,174.19ZM175,282a21.43,21.43,0,1,1,21.43-21.43A21.43,21.43,0,0,1,175,282Zm150,0a21.43,21.43,0,1,1,21.43-21.43A21.43,21.43,0,0,1,325,282Zm53.57-32.14H366.36a42.86,42.86,0,0,0-82.72,0H216.36a42.86,42.86,0,0,0-82.72,0H121.43V176A32.14,32.14,0,0,1,127,157.9L156,115a10.71,10.71,0,0,1,8.89-4.5h85.71a10.73,10.73,0,0,1,8.25,3.86l36.43,45.75a11.76,11.76,0,0,0,4.72,3.43l78.53,28.18Z"/><text class="cls-2" transform="translate(79.54 457.12)">RIDE SHARE</text></svg>