<svg id="Layer_1" data-name="Layer 1" xmlns="http://www.w3.org/2000/svg" viewBox="0 0 500 500"><defs><style>.cls-1{fill:#ff002e;}.cls-2,.cls-3{fill:none;stroke-linejoin:round;stroke-width:20px;}.cls-2{stroke:#555861;}.cls-3{stroke:#ff002e;stroke-linecap:round;}</style></defs><title>secure</title><circle id="_Path_" data-name="&lt;Path&gt;" class="cls-1" cx="250" cy="265" r="10.67"/><path class="cls-2" d="M170,90H370a80,80,0,0,1,0,160H330m-160,0H130a80,80,0,0,0,0,160H330"/><path class="cls-3" d="M223.33,210V176.67a26.67,26.67,0,0,1,53.34,0V210M250,252.67v20m0-69.34a53.34,53.34,0,1,0,53.33,53.34A53.49,53.49,0,0,0,250,203.33Z"/><circle class="cls-3" cx="90" cy="90" r="40"/><circle class="cls-3" cx="410" cy="410" r="40"/></svg>