<svg id="Layer_1" data-name="Layer 1" xmlns="http://www.w3.org/2000/svg" viewBox="0 0 500 500"><defs><style>.cls-1{fill:#ff002e;}</style></defs><title>statsiconred</title><path class="cls-1" d="M216.07,440a149.29,149.29,0,0,1,0-298.57A13.56,13.56,0,0,1,229.64,155V277.14H351.79a13.58,13.58,0,0,1,13.57,13.57A149.29,149.29,0,0,1,216.07,440ZM202.5,169.39a122.14,122.14,0,1,0,134.9,134.9H229.64a27.15,27.15,0,0,1-27.14-27.15Z"/><path class="cls-1" d="M419.64,222.86H297.5a27.15,27.15,0,0,1-27.14-27.15V73.57A13.57,13.57,0,0,1,283.93,60,149.28,149.28,0,0,1,433.21,209.29,13.57,13.57,0,0,1,419.64,222.86ZM297.5,195.71H405.26A122.14,122.14,0,0,0,297.5,88Z"/></svg>