<svg xmlns="http://www.w3.org/2000/svg" id="Layer_1" data-name="Layer 1" viewBox="0 0 500 500"><defs><style>.cls-1,.cls-2{fill:#fff;stroke-miterlimit:10;stroke-width:20px}.cls-1{stroke:#555861}.cls-2{stroke:#ff002e}</style></defs><title>threat</title><g id="strategy_play" data-name="strategy play"><path id="strategy_play-2" d="M272.38,189.86l57.34,55.94m-55.94,0,55.94-55.94M174.48,50l57.34,55.94m-55.95,0L231.82,50m138.46,97.9,57.34,55.95m-55.94,0,55.94-55.95M92,92V343.71c0,69.93,69.93,69.93,69.93,69.93H245.8M119.93,119.93,92,92l-28,28M385.66,78l-28-28-28,28m28-28V92c0,42-42,42-42,42H259.79c-55.94,0-55.94,55.94-55.94,55.94v69.93" class="cls-1" data-name="strategy play"/></g><ellipse cx="399.65" cy="315.31" class="cls-2" rx="28.01" ry="27.92" transform="translate(-105.9 374.93) rotate(-45)"/><ellipse cx="301.75" cy="315.31" class="cls-2" rx="28.01" ry="27.92" transform="translate(-134.57 305.7) rotate(-45)"/><ellipse cx="301.75" cy="413.21" class="cls-2" rx="28.01" ry="27.92" transform="translate(-203.8 334.38) rotate(-45)"/><ellipse cx="203.85" cy="315.31" class="cls-2" rx="28.01" ry="27.92" transform="translate(-163.25 236.48) rotate(-45)"/></svg>