<svg xmlns="http://www.w3.org/2000/svg" xmlns:xlink="http://www.w3.org/1999/xlink" id="Layer_1" x="0" y="0" enable-background="new 0 0 48 48" version="1.1" viewBox="0 0 48 48" xml:space="preserve"><style type="text/css">.st0{fill:none;stroke:#555861;stroke-width:2;stroke-linejoin:round;stroke-miterlimit:10}.st1{fill:#ff002e}.st2{fill:none;stroke:#ff002e;stroke-linecap:round;stroke-linejoin:round;stroke-miterlimit:10}.st3{fill:#ff7e00}.st4{fill:#39687e}.st5{fill:#555861}.st6,.st7{stroke-linejoin:round;stroke-miterlimit:10}.st6{fill:none;stroke:#39687e;stroke-width:2;stroke-linecap:round}.st7{fill:#ff002e;stroke:#ff002e;stroke-width:.25}.st8,.st9{stroke:#555861}.st8{fill:#fff;stroke-miterlimit:10}.st9{fill:none;stroke-linejoin:round}.st10,.st11,.st12,.st9{stroke-miterlimit:10}.st10{fill:none;stroke:#555861;stroke-linecap:round;stroke-linejoin:round;stroke-dasharray:2.000000e-02,2}.st11{fill:#ff002e;stroke:#ff002e}.st12{fill:#ff7e00;stroke:#ff7e00}.st13{fill:none;stroke-width:2;stroke-miterlimit:10}.st13,.st14,.st15{stroke:#555861}.st14,.st15,.st16{stroke-width:2;stroke-miterlimit:10}.st14{fill:#fff}.st15{fill:#ff002e}.st16{fill:none;stroke:#ff002e;stroke-linejoin:round}.st17{fill:#6b6b6b}.st18{stroke:#ff7e00;stroke-width:2;stroke-miterlimit:10}.st18,.st19{fill:none}.st20,.st21{fill:none;stroke-linejoin:round;stroke-miterlimit:10}.st20{stroke:#ff7e00;stroke-linecap:round}.st21{stroke:#ff002e}.st22{fill:#494a4b}</style><path d="M-1274,12h15c3.3,0,6,2.7,6,6c0,3.3-2.7,6-6,6h-3 M-1274,24h-3c-3.3,0-6,2.7-6,6c0,3.3,2.7,6,6,6h15" class="st0"/><circle id="XMLID_657_" cx="-1268" cy="24" r=".8" class="st1"/><path d="M-1270,21v-2.5c0-1.1,0.9-2,2-2s2,0.9,2,2V21 M-1268,24.2v1.5 M-1268,20.5c-2.2,0-4,1.8-4,4s1.8,4,4,4	s4-1.8,4-4S-1265.8,20.5-1268,20.5z M-1280,9c-1.7,0-3,1.3-3,3s1.3,3,3,3s3-1.3,3-3S-1278.3,9-1280,9z M-1256,33c-1.7,0-3,1.3-3,3	s1.3,3,3,3s3-1.3,3-3S-1254.3,33-1256,33z" class="st2"/><g id="innovate"><g id="innovate_1_"><path id="patterns-ideas-creativity-04" d="M-1200,9.8c5.1,0,9,4.1,9,9.3c0,2.5-1.1,5-2.9,6.8 c-2.1,2.2-2.1,4.7-2.1,6.4v1.5h-8v-1.5c0-1.7,0-4.2-2.1-6.4c-1.8-1.9-2.9-4.3-2.9-6.8C-1209,13.9-1205.1,9.8-1200,9.8 M-1204,35.8 h8 M-1204,37.8h8 M-1203,39.8h6" class="st0"/></g></g><rect width="50" height="50" x="-1352" y="-81.3" class="st1"/><rect width="50" height="50" x="-1288.5" y="-81.3" class="st3"/><rect width="50" height="50" x="-1225" y="-81.3" class="st4"/><rect width="50" height="50" x="-1161.5" y="-81.3" class="st5"/><circle cx="-1280" cy="12" r="3" class="st1"/><circle cx="-1256" cy="36" r="3" class="st1"/><g id="credit_card"><path id="credit_card_1_" d="M-1119,34h-26c-1.1,0-2-0.9-2-2V16c0-1.1,0.9-2,2-2h26c1.1,0,2,0.9,2,2v16 C-1117,33.1-1117.9,34-1119,34z M-1147,18h30 M-1147,21h30" class="st6"/></g><rect width="28" height="5.5" x="-1146" y="16.8" class="st3"/><path id="gear" d="M-1197.5,18.8c0,1.4-1.1,2.5-2.5,2.5s-2.5-1.1-2.5-2.5s1.1-2.5,2.5-2.5S-1197.5,17.4-1197.5,18.8z M-1194,19.9v-2.4h-1.6l-0.5-1.1l1.1-1.1l-1.7-1.7l-1.1,1.1l-1.1-0.5v-1.5h-2.4v1.6l-1.1,0.5l-1.1-1.1l-1.7,1.7l1.1,1.1l-0.5,1.1	h-1.5v2.4h1.6l0.5,1.1l-1.1,1.1l1.7,1.7l1.1-1.1l1.1,0.5v1.5h2.4v-1.6l1.1-0.5l1.1,1.1l1.7-1.7l-1.1-1.1l0.5-1.1H-1194z" class="st7"/><g id="strategy_play"><path id="strategy_play_1_" d="M-1051,29c0,1.1-0.9,2-2,2c-1.1,0-2-0.9-2-2s0.9-2,2-2C-1051.9,27-1051,27.9-1051,29z M-1060,27c-1.1,0-2,0.9-2,2s0.9,2,2,2c1.1,0,2-0.9,2-2S-1058.9,27-1060,27z M-1060,34c-1.1,0-2,0.9-2,2s0.9,2,2,2c1.1,0,2-0.9,2-2 S-1058.9,34-1060,34z M-1067,27c-1.1,0-2,0.9-2,2s0.9,2,2,2c1.1,0,2-0.9,2-2S-1065.9,27-1067,27z M-1062.1,20l4.1,4 M-1062,24l4-4 M-1069.1,10l4.1,4 M-1069,14l4-4 M-1055.1,17l4.1,4 M-1055,21l4-4 M-1075,13c0,0,0,13,0,18s5,5,5,5h6 M-1073,15l-2-2l-2,2 M-1054,12l-2-2l-2,2 M-1056,10c0,0,0,0,0,3s-3,3-3,3s0,0-4,0s-4,4-4,4v5" class="st8"/></g><circle cx="-1067" cy="29" r="2.6" class="st1"/><circle cx="-1060.1" cy="29" r="2.6" class="st1"/><circle cx="-1053" cy="29" r="2.6" class="st1"/><circle cx="-1060" cy="36" r="2.6" class="st1"/><g id="build"><g id="build_1_"><path d="M-857,24c0,1.7-1.3,3-3,3c-1.7,0-3-1.3-3-3s1.3-3,3-3C-858.3,21-857,22.3-857,24z M-860,9 c-0.8,0-1.5,0.7-1.5,1.5s0.7,1.5,1.5,1.5c0.8,0,1.5-0.7,1.5-1.5S-859.2,9-860,9z M-867,31c-2.2,0-4,1.8-4,4s1.8,4,4,4s4-1.8,4-4 S-864.8,31-867,31z M-854.6,17.5v3l2.6,1.5l2.6-1.5v-3L-852,16L-854.6,17.5z M-851,29l6,3.5v-7L-851,29z M-872.9,23.9L-875,26 l2.1,2.1l2.1-2.1L-872.9,23.9z M-860,15v6 M-864.9,31.6l2.3-3.6 M-873.7,30c0.4,0.9,0.9,1.7,1.4,2.5 M-862.5,38.8 c0.8,0.1,1.6,0.2,2.5,0.2c4.9,0,9.3-2.4,12-6 M-845,23c-0.4-6.8-5.5-12.4-12-13.7 M-862,16.2c-3.5,0.9-6,4-6,7.7 c0,1.5,0.4,2.8,1.1,4" class="st9"/><g><g><path d="M-875,23c0.4-6.8,5.4-12.4,11.9-13.7" class="st10"/></g><path d="M-852,24c0,4.4-3.6,8-8,8c-0.7,0-1.4-0.1-2-0.3" class="st10"/></g></g></g><g><line x1="-933.1" x2="-913.1" y1="11.4" y2="11.4" class="st11"/><line x1="-933.1" x2="-913.1" y1="24" y2="24" class="st11"/><line x1="-933.1" x2="-913.1" y1="36.6" y2="36.6" class="st11"/><circle cx="-939.9" cy="24" r="3" class="st11"/><circle cx="-939.9" cy="36.6" r="3" class="st11"/><circle cx="-939.9" cy="11.4" r="3" class="st11"/></g><circle cx="-860" cy="23.9" r="3" class="st11"/><circle cx="-860" cy="10.5" r="2.2" class="st11"/><circle cx="-867" cy="35" r="4.1" class="st11"/><polygon points="-851.8 15.5 -854.8 17.3 -854.7 20.8 -851.7 22.5 -848.7 20.7 -848.7 17.2" class="st12"/><rect width="3.5" height="3.5" x="-874.8" y="24.2" class="st12" transform="matrix(0.7071 -0.7071 0.7071 0.7071 -274.093 -609.7281)"/><g id="cloud_upload"><g id="cloud_upload_1_"><path d="M-1004.5,29.7c-3.7-0.5-6.5-3.7-6.5-7.5c0-4.1,3.3-7.5,7.5-7.5c1,0,2,0.2,2.8,0.6c1.2-2.6,3.8-4.3,6.8-4.3 c4,0,7.3,3.1,7.5,7.1c3,0.2,5.4,2.7,5.4,5.8c0,3.2-2.6,5.8-5.8,5.8c0,0-0.1,0-0.1,0" class="st13"/><path d="M-1002,26l6-6l6,6 M-996,37V20" class="st13"/></g></g><g id="chart_bar"><path id="chart--bar_1_" d="M-777,39h-6V9h6V39z M-801,33h-6v6h6V33z M-789,21h-6v18h6V21z" class="st14"/></g><g><line x1="-729.1" x2="-709.1" y1="11.4" y2="11.4" class="st15"/><line x1="-729.1" x2="-709.1" y1="24" y2="24" class="st15"/><line x1="-729.1" x2="-709.1" y1="36.6" y2="36.6" class="st15"/><circle cx="-735.9" cy="24" r="3" class="st14"/><circle cx="-735.9" cy="36.6" r="3" class="st14"/><circle cx="-735.9" cy="11.4" r="3" class="st14"/></g><g id="person_03"><path id="person_03_1_" d="M-656,10c-1.4,0-2.5,1.1-2.5,2.5s1.1,2.5,2.5,2.5s2.5-1.1,2.5-2.5S-654.6,10-656,10z M-658,38v-9c-1.3-0.5-2-1.5-2-2.8V21c0-2.2,1.8-4,4-4s4,1.8,4,4v5.2c0,1.3-0.7,2.3-2,2.8v9" class="st16"/></g><g id="person_03_2_"><path id="person_03_3_" d="M-588,10c-1.4,0-2.5,1.1-2.5,2.5s1.1,2.5,2.5,2.5s2.5-1.1,2.5-2.5S-586.6,10-588,10z M-590,38v-9c-1.3-0.5-2-1.5-2-2.8V21c0-2.2,1.8-4,4-4s4,1.8,4,4v5.2c0,1.3-0.7,2.3-2,2.8v9" class="st13"/></g><g id="calendar_event"><path id="calendar_alt" d="M-456,12h8 M-462,12h-4v27h28V12h-4 M-454,20h-8v4h8V20z M-444,14v-4c0-0.6-0.4-1-1-1l0,0 c-0.6,0-1,0.4-1,1v4c0,0.6,0.4,1,1,1l0,0C-444.4,15-444,14.6-444,14z M-458,14v-4c0-0.6-0.4-1-1-1l0,0c-0.6,0-1,0.4-1,1v4 c0,0.6,0.4,1,1,1l0,0C-458.4,15-458,14.6-458,14z M-454,29h-8v4h8V29z M-442,20h-8v4h8V20z M-442,29h-8v4h8V29z" class="st13"/></g><g id="calendar_event_1_"><path id="calendar_alt_1_" d="M-525,11h8 M-531,11h-4v27h28V11h-4 M-523,19h-8v4h8V19z M-513,13V9c0-0.6-0.4-1-1-1 l0,0c-0.6,0-1,0.4-1,1v4c0,0.6,0.4,1,1,1l0,0C-513.4,14-513,13.6-513,13z M-527,13V9c0-0.6-0.4-1-1-1l0,0c-0.6,0-1,0.4-1,1v4 c0,0.6,0.4,1,1,1l0,0C-527.4,14-527,13.6-527,13z M-523,28h-8v4h8V28z M-511,19h-8v4h8V19z M-511,28h-8v4h8V28z" class="st17"/></g><g id="design_and_development_02"><g id="design_and_development_02_1_"><path d="M-371,10.5c0,0.3-0.2,0.5-0.5,0.5s-0.5-0.2-0.5-0.5s0.2-0.5,0.5-0.5S-371,10.2-371,10.5z M-373.5,10 c-0.3,0-0.5,0.2-0.5,0.5s0.2,0.5,0.5,0.5s0.5-0.2,0.5-0.5S-373.2,10-373.5,10z M-375.5,10c-0.3,0-0.5,0.2-0.5,0.5s0.2,0.5,0.5,0.5 s0.5-0.2,0.5-0.5S-375.2,10-375.5,10z" class="st18"/><path d="M-396,16h10 M-396,19h10 M-396,22h6" class="st18"/><path d="M-369,30h-30V9h30V30z M-399,33h30 M-399,12h30 M-399,36h30 M-399,39h30 M-376,15c-2.2,0-4,1.8-4,4 s1.8,4,4,4s4-1.8,4-4S-373.8,15-376,15z M-376,19l3.5-2 M-376,19l-3.5-2 M-376,19l-2,3.5" class="st18"/></g></g><path d="M-308,11h-16c-1.1,0-2,0.9-2,2v22c0,1.1,0.9,2,2,2h16c1.1,0,2-0.9,2-2V13C-306,11.9-306.9,11-308,11z M-308,13	v6h-16v-6H-308z M-324,27v-6h16v6H-324z M-324,35v-6h16v6H-324z" class="st3"/><circle cx="-321" cy="16" r="1" class="st1"/><circle cx="-321" cy="24" r="1" class="st1"/><circle cx="-321" cy="32" r="1" class="st1"/><rect id="_Transparent_Rectangle_" width="32" height="32" x="-332" y="8" class="st19"/><g id="secure_profile"><g id="secure_profile_2_"><line id="XMLID_462_" x1="-240.5" x2="-240.5" y1="30.5" y2="33.4" class="st20"/><circle cx="-240.5" cy="30.5" r="1.5" class="st3"/><path d="M-248,27v12h15V24h-30V9h15v12 M-237,24l0-4.5c0-1.9-1.6-3.5-3.5-3.5h0c-1.9,0-3.5,1.6-3.5,3.5V24 M-251,24 v-3c0-2.1-1.4-3.8-3.3-4.3c0.8-0.4,1.3-1.2,1.3-2.2c0-1.4-1.1-2.5-2.5-2.5c-1.4,0-2.5,1.1-2.5,2.5c0,0.9,0.5,1.8,1.3,2.2 c-1.9,0.5-3.3,2.3-3.3,4.3v3" class="st21"/></g></g><g><path d="M-172,11h-16c-1.1,0-2,0.9-2,2v22c0,1.1,0.9,2,2,2h16c1.1,0,2-0.9,2-2V13C-170,11.9-170.9,11-172,11z M-172,13v6h-16v-6H-172z M-188,27v-6h16v6H-188z M-188,35v-6h16v6H-188z" class="st22"/><circle cx="-185" cy="16" r="1" class="st3"/><circle cx="-185" cy="24" r="1" class="st3"/><circle cx="-185" cy="32" r="1" class="st3"/><rect id="_Transparent_Rectangle__1_" width="32" height="32" x="-196" y="8" class="st19"/></g><g id="mobile_phone"><g id="mobile_phone_1_"><path d="M-103,39h-18V9h18V39z M-121,32h18" class="st21"/><circle id="XMLID_11_" cx="-112" cy="35.5" r="1.5" class="st3"/></g></g><rect id="Rectangle-path" width="8" height="2" x="-48" y="12" class="st4"/><path id="Shape" d="M-52,15v4h1v17h14V19h1v-4H-52L-52,15L-52,15z M-39,33h-10V20h10V33L-39,33z" class="st4"/><rect id="Rectangle-path_1_" width="2" height="9" x="-47" y="22" class="st4"/><rect id="Rectangle-path_2_" width="2" height="9" x="-43" y="22" class="st4"/><polygon id="Rectangle-path_3_" points="29.3 11.9 32.2 9 38 14.8 35.1 17.7" class="st4"/><path id="Shape_2_" d="M12.9,28.4l5.8,5.8l14.5-14.5l-5.8-5.8L12.9,28.4L12.9,28.4L12.9,28.4L12.9,28.4L12.9,28.4z M18.7,31.5l-3.1-3.1l11.8-11.8l3.1,3.1L18.7,31.5L18.7,31.5L18.7,31.5L18.7,31.5L18.7,31.5z" class="st4"/><polygon id="Shape_1_" points="9 38.1 13.8 36.1 10.9 33.2" class="st4"/></svg>